<svg width="43" height="41" viewBox="0 0 43 41" fill="none" xmlns="http://www.w3.org/2000/svg">
<path fill-rule="evenodd" clip-rule="evenodd" d="M6.34813 4.4005C6.52939 3.92332 7.06316 3.68343 7.54034 3.86468L17.5712 7.67487C17.5718 7.67513 17.5725 7.67539 17.5732 7.67564C18.399 7.98584 19.0877 8.57964 19.516 9.35091C19.9444 10.1228 20.0845 11.0221 19.9104 11.8879L19.3207 14.8055C19.3206 14.8061 19.3204 14.8067 19.3203 14.8073C19.1834 15.4945 18.8551 16.1291 18.3731 16.6378C17.8907 17.1469 17.2742 17.5091 16.5947 17.6827L16.5898 17.684L13.1766 18.536L11.197 23.468C11.1969 23.4683 11.1967 23.4687 11.1966 23.469C10.7085 24.6925 9.85979 25.7385 8.76326 26.4683L8.75452 26.4741L5.06953 28.8668C4.64141 29.1448 4.06901 29.0231 3.79103 28.5949C3.51305 28.1668 3.63475 27.5944 4.06287 27.3165L7.74322 24.9267C8.52585 24.4046 9.13151 23.6572 9.48001 22.7833L9.48078 22.7813L11.637 17.4094C11.7475 17.1342 11.9832 16.9287 12.2709 16.8569L16.1372 15.8917C16.1379 15.8916 16.1387 15.8914 16.1395 15.8912C16.4802 15.8037 16.7893 15.6218 17.0313 15.3664C17.2738 15.1105 17.4389 14.7911 17.5076 14.4453L17.5082 14.4423L18.0982 11.5236C18.0982 11.5235 18.0982 11.5237 18.0982 11.5236C18.1855 11.0886 18.1153 10.6363 17.8999 10.2483M6.34813 4.4005C6.16688 4.87768 6.40677 5.41145 6.88395 5.5927ZM6.88395 5.5927L16.9185 9.40429ZM17.8999 10.2483C17.6844 9.86029 17.3378 9.56152 16.9222 9.40569L16.9185 9.40429" fill="#153CF5"/>
<path fill-rule="evenodd" clip-rule="evenodd" d="M30.24 5.24539C30.6498 5.5498 30.7351 6.12874 30.4307 6.53848L28.6118 8.98677C28.1649 9.58879 27.8697 10.2899 27.7516 11.0301C27.6335 11.77 27.6955 12.5275 27.9322 13.2384C27.9323 13.2389 27.9325 13.2394 27.9327 13.24L28.4138 14.6648C28.5771 15.1484 28.3174 15.6728 27.8338 15.8361C27.3501 15.9994 26.8257 15.7397 26.6624 15.2561L26.1791 13.8246C25.848 12.8313 25.7612 11.7728 25.9262 10.7388C26.0912 9.70472 26.5034 8.72575 27.1276 7.88496L28.9469 5.4361C29.2513 5.02636 29.8303 4.94098 30.24 5.24539Z" fill="#153CF5"/>
<path fill-rule="evenodd" clip-rule="evenodd" d="M22.5577 2.66901C19.7889 1.78836 16.831 1.68653 14.0082 2.37468L13.8306 1.646L14.0082 2.37468C11.1853 3.06282 8.60627 4.51441 6.55336 6.57049C4.50043 8.62658 3.05284 11.2079 2.36903 14.0318L1.47075 13.8143L2.36903 14.0318C1.68524 16.8557 1.79163 19.8132 2.67655 22.5808C3.56147 25.3483 5.19079 27.8189 7.38611 29.7221L7.38615 29.7221C9.58147 31.6254 12.2582 32.8879 15.1232 33.3714C15.6265 33.4564 15.9656 33.9333 15.8807 34.4366C15.7958 34.9399 15.3189 35.2791 14.8155 35.1941C11.6161 34.6542 8.62692 33.2443 6.17528 31.1188C3.72364 28.9934 1.90411 26.2343 0.915886 23.1437C-0.0723399 20.0531 -0.191148 16.7503 0.572463 13.5968L1.41396 13.8005L0.572465 13.5968C1.3361 10.4432 2.95268 7.56054 5.24528 5.26442C7.53785 2.96832 10.418 1.34726 13.5704 0.578785C16.7228 -0.189696 20.0259 -0.0759816 23.118 0.907479L22.8393 1.78361L23.118 0.90748C26.2101 1.89095 28.9718 3.70622 31.1011 6.15455L31.1011 6.15458C33.2302 8.6029 34.6448 11.5899 35.1898 14.7885C35.2755 15.2917 34.9371 15.7691 34.4339 15.8549C33.9307 15.9406 33.4533 15.6022 33.3675 15.099C32.8796 12.2347 31.6128 9.55998 29.7063 7.36755C27.7995 5.17515 25.3265 3.54966 22.5577 2.66901Z" fill="#153CF5"/>
<path fill-rule="evenodd" clip-rule="evenodd" d="M21.7208 25.1004C21.4444 25.1004 21.2203 25.3245 21.2203 25.6009V38.4232C21.2203 38.6996 21.4444 38.9237 21.7208 38.9237H40.2419C40.5183 38.9237 40.7424 38.6996 40.7424 38.4232V25.6009C40.7424 25.3245 40.5183 25.1004 40.2419 25.1004H21.7208ZM19.3718 25.6009C19.3718 24.3036 20.4235 23.252 21.7208 23.252H40.2419C41.5392 23.252 42.5909 24.3036 42.5909 25.6009V38.4232C42.5909 39.7205 41.5392 40.7722 40.2419 40.7722H21.7208C20.4235 40.7722 19.3718 39.7205 19.3718 38.4232V25.6009Z" fill="#153CF5"/>
<path fill-rule="evenodd" clip-rule="evenodd" d="M23.646 29.162C23.646 28.6516 24.0598 28.2378 24.5702 28.2378H37.3926C37.903 28.2378 38.3168 28.6516 38.3168 29.162C38.3168 29.6725 37.903 30.0863 37.3926 30.0863H24.5702C24.0598 30.0863 23.646 29.6725 23.646 29.162Z" fill="#153CF5"/>
<path fill-rule="evenodd" clip-rule="evenodd" d="M23.646 34.8613C23.646 34.3508 24.0598 33.937 24.5702 33.937H37.3926C37.903 33.937 38.3168 34.3508 38.3168 34.8613C38.3168 35.3717 37.903 35.7855 37.3926 35.7855H24.5702C24.0598 35.7855 23.646 35.3717 23.646 34.8613Z" fill="#153CF5"/>
<path fill-rule="evenodd" clip-rule="evenodd" d="M29.1587 18.9775C28.6658 18.9775 28.1855 19.1325 27.7856 19.4205ZM29.1585 20.826C29.0535 20.826 28.9512 20.859 28.866 20.9204C28.7808 20.9817 28.7171 21.0683 28.6838 21.1678C28.6838 21.1679 28.6838 21.1677 28.6838 21.1678L27.9894 23.2517H33.9732L33.2789 21.168C33.2789 21.1679 33.2789 21.1681 33.2789 21.168C33.2456 21.0685 33.1818 20.9817 33.0967 20.9204C33.0115 20.859 32.9091 20.826 32.8041 20.826H29.1585ZM29.1587 18.9775H32.8039C32.8039 18.9775 32.8038 18.9775 32.8039 18.9775C33.2967 18.9775 33.7772 19.1325 34.1771 19.4205C34.577 19.7086 34.8762 20.1151 35.0322 20.5827L36.1323 23.8837C36.2262 24.1655 36.1789 24.4753 36.0052 24.7163C35.8315 24.9573 35.5525 25.1001 35.2554 25.1001H26.7072C26.4101 25.1001 26.1312 24.9573 25.9574 24.7163C25.7837 24.4753 25.7364 24.1655 25.8304 23.8837L26.9302 20.5831C27.0863 20.1156 27.3857 19.7086 27.7856 19.4205" fill="#153CF5"/>
<path fill-rule="evenodd" clip-rule="evenodd" d="M23.1456 21.8271C23.656 21.8271 24.0698 22.2409 24.0698 22.7514V24.1761C24.0698 24.6865 23.656 25.1003 23.1456 25.1003C22.6351 25.1003 22.2213 24.6865 22.2213 24.1761V22.7514C22.2213 22.2409 22.6351 21.8271 23.1456 21.8271Z" fill="#153CF5"/>
<path fill-rule="evenodd" clip-rule="evenodd" d="M38.8172 21.8271C39.3276 21.8271 39.7414 22.2409 39.7414 22.7514V24.1761C39.7414 24.6865 39.3276 25.1003 38.8172 25.1003C38.3067 25.1003 37.8929 24.6865 37.8929 24.1761V22.7514C37.8929 22.2409 38.3067 21.8271 38.8172 21.8271Z" fill="#153CF5"/>
</svg>
